Patient4_TMGait_0pt7_02_right_27_EMG.mot
version=1
nRows=27
nColumns=33
inDegrees=no
endheader
time	1LAddLong	2LGlutMax	3LGlutMed	4LIliopsoas	5LSemiMemb	6LBicFemLong	7LRecFem	8LVastMed	9LVastLat	10LGasMed	11LTibAnt	12lTibPost	13LPeroneusLong	14LSol	15LExtDigLong	16LFlexDigLong	17RAddLong	18RGlutMax	19RGlutMed	20RIliopsoas	21RSemiMemb	22RBicFemLong	23RRecFem	24RVastMed	25RVastLat	26RGasMed	27RTibAnt	28RTibPost	29RPeroneusLong	30RSol	31RExtDigLong	32RFlexDigLong
30.605	-0.011444	-1.49	-0.07782	-0.033875	0.009308	-0.029755	0.076447	-0.001068	0.004425	0.041351	0.17441	0.004272	-0.12314	-0.019073	0.19257	-0.041809	-0.17532	-0.28748	-0.84518	0.023956	0.4541	0.66132	0.49042	0.21439	0.013885	-0.012207	0.15259	-0.046082	-0.28381	-0.20599	0.002594	-0.012665
30.606	-0.010529	-1.4426	-0.02121	-0.032196	0.002136	-0.017548	0.066986	0.001373	0.00473	0.040894	0.18295	0.004578	-0.14023	0.003357	0.15808	-0.044556	-0.12512	-0.16861	-0.81863	-0.034027	0.24902	0.25055	0.58029	0.21164	-0.001068	-0.001221	-0.63995	-0.037842	0.12543	-0.23499	0.00061	-0.009308
30.607	-0.003357	-1.378	0.007477	-0.015259	0.007477	-0.05188	-0.007172	0.013885	0.003357	0.026703	-0.16144	0.002136	-0.1326	0.028839	0.30579	-0.049896	-0.088196	-0.15411	-0.73593	-0.003662	-0.14847	-0.14694	0.54718	0.27237	0.015717	-0.004578	-0.12894	-0.036926	0.21362	-0.26825	0.000916	-0.012817
30.608	-0.007477	-1.261	0.007477	-0.018768	0.016174	-0.056458	-0.006104	0.00412	0.014496	0.006866	-0.089874	-0.002289	-0.074921	0.042725	0.25467	-0.062103	-0.03891	-0.25726	-0.63049	-0.031891	-0.23086	-0.39734	0.57541	0.19379	-0.075989	-0.025787	0.24979	-0.037384	0.18631	-0.16739	-0.001373	-0.021362
30.609	-0.003052	-1.1356	0.011444	0.012207	0.017853	-0.065765	-0.010071	0.010986	0.02243	-0.002289	-0.017242	-0.001678	-0.059814	0.092316	0.25253	-0.046234	0.000458	-0.35049	-0.51346	-0.008392	-0.16113	-0.68558	0.62027	0.06958	-0.1532	-0.069275	-0.002747	-0.035858	0.10086	-0.024567	-0.00061	-0.020142
30.61	0.000153	-0.99503	-0.005951	0.019989	0.017242	-0.084381	0.032043	0.006409	0.026855	0.000916	0.12375	0.014343	-0.1239	0.12466	0.1062	-0.051727	-0.010681	-0.26825	-0.80307	-0.00473	-0.099487	-0.87845	0.62195	0.078888	-0.1651	-0.098724	-0.21454	-0.036011	0.049591	0.010071	-0.002136	-0.018005
30.611	0.012817	-0.7782	0.02655	-0.015411	0.019073	-0.064392	0.090485	-0.00351	0.032043	-0.00946	0.18906	0.007477	-0.12039	0.14313	0.17319	-0.053253	-0.037231	-0.14816	-1.0696	-0.15717	-0.038757	-0.80246	0.62347	0.17563	-0.12665	-0.10986	-0.24185	-0.032959	0.079193	-0.37766	0	-0.013885
30.612	0.01297	-0.57831	0.041809	0.00885	0.027008	-0.078278	0.17075	-0.02182	0.021515	0.017242	0.10895	-0.001373	-0.1207	0.15366	-0.019379	-0.05188	-0.0383	-0.016327	-0.89508	-0.27374	-0.007477	-0.75272	0.5661	0.30502	-0.000305	-0.17639	-0.11566	-0.036621	-0.032196	-0.57724	-0.001831	-0.016174
30.613	-0.003204	-0.39108	0.002136	0.049286	0.026855	-0.069733	0.20508	-0.013275	0.00351	0.019836	0.029297	-0.001984	-0.086212	0.084991	-0.35675	-0.044556	0.02594	0.041656	-0.66605	-0.20905	0.022583	-0.7106	0.62302	0.17685	0.00824	-0.13016	0.069122	-0.04364	-0.24918	-0.57846	-0.00061	-0.011902
30.614	-0.006561	-0.20203	-0.023193	0.021362	0.020905	-0.050659	0.20996	-0.000916	-0.021667	0.03006	-0.28778	0.001831	-0.04364	0.052795	0.031586	-0.062561	0.028992	0.10696	-0.49423	-0.057678	0.062714	-0.57785	0.52826	0.096893	0.009613	-0.019379	-0.16037	-0.027008	-0.35782	-0.19623	0.00351	-0.013275
30.615	-0.014954	-0.032196	-0.048828	-0.041199	0.028381	-0.048218	0.30563	-0.010986	-0.015106	0.01236	-0.19867	0.001526	0.000153	0.11993	-0.1329	-0.059052	0.006409	0.23254	-0.46371	0.21698	0.19394	-0.45715	0.34775	0.13626	-0.049591	-0.042114	-0.19547	-0.002899	-0.42511	-0.12299	-0.003052	-0.016937
30.616	-0.007629	0.061035	-0.01297	-0.042877	0.028229	-0.033722	0.4541	-0.001984	-0.040588	0.020905	-0.13916	0.005798	-0.032959	0.091858	-0.32196	-0.057526	-0.053711	0.2095	-0.40741	0.36606	0.15182	-0.43686	0.27756	0.15488	-0.030212	-0.05249	-0.25879	-0.050659	-0.37827	-0.079193	-0.001526	-0.009766
30.617	-0.00412	0.22171	0.012207	0.015869	0.027313	-0.005646	0.61279	0.015564	-0.078888	0.018463	-0.068054	-0.018311	-0.056763	0.04837	-0.17639	-0.058899	-0.074768	0.16312	-0.44662	0.28458	-0.37491	-0.21759	0.089722	0.046997	-0.019226	0.075836	0.089264	-0.11261	-0.099182	-0.078735	-0.001526	-0.016327
30.618	-0.022888	0.29923	-0.010071	0.030975	0.029755	-0.006409	0.63141	0.025177	-0.073242	0.009613	0.032196	0.023499	-0.076294	0.030823	0.053864	-0.058289	-0.067902	0.19318	-0.56686	0.11261	-0.52719	-0.1178	0.061798	0.014648	0.02243	0.11093	0.38666	-0.06424	0.27832	-0.099945	0.001221	-0.010681
30.619	-0.017548	0.39307	0.011139	0.040588	0.022736	-0.016174	0.6218	0.02594	-0.061646	0.007324	0.19608	0.010681	-0.070801	0.022736	0.30945	-0.058289	-0.032043	0.21164	-0.68481	0.030365	-0.18753	0.021057	0.25543	0.018311	0.035095	0.061798	0.31128	0.11246	0.30533	0.051422	0.001526	-0.016022
30.62	-0.018005	0.49652	-0.043488	0.023193	0.025024	-0.00824	0.44495	0.032043	-0.068359	0.018616	0.14801	-0.007629	-0.097656	0.030823	-0.087738	-0.065918	0.001068	0.083923	-0.59097	-0.028992	-0.12466	0.32913	0.35217	0.006714	0.024567	0.04303	0.41779	0.13855	0.029297	0.26321	0.002441	-0.009613
30.621	-0.027313	0.56824	-0.043182	0.006714	0.029297	-0.032349	0.30197	0.03006	-0.074158	0.045471	-0.039978	0.009613	-0.12314	0.054016	-0.036621	-0.079498	-0.003204	0.02243	-0.168	-0.10071	-0.005951	0.54169	0.32638	-0.05127	0.002441	0.025177	0.6192	0.072784	-0.35599	0.32593	-0.002899	-0.01709
30.622	-0.012512	0.6279	-0.032196	0.023499	0.031433	-0.025787	0.10056	0.028992	-0.061951	0.049591	-0.018158	0.011902	-0.14557	0.086517	-0.45792	-0.090485	0.016785	-0.009003	-0.2504	-0.11383	0.016479	0.49667	0.42862	-0.15823	-0.051727	0.015869	0.37308	0.015869	-0.31235	0.18326	-0.001831	-0.018463
30.623	-0.001678	0.74463	-0.040741	0.077667	0.0354	-0.007629	0.001373	0.028229	-0.067139	0.020142	-0.10727	0.002594	-0.018463	0.12009	-0.27283	-0.063477	0.046234	0.066071	-0.37277	-0.066833	0.15625	0.38406	0.50995	-0.19562	-0.10864	0.01358	0.30121	-0.004578	0.025635	-0.071411	-0.002136	-0.004272
30.624	-0.001221	0.74799	-0.081024	0.080719	0.034637	-0.011749	-0.021057	0.029755	-0.026398	0.005951	-0.053711	0.00824	0.045166	0.16068	0.30792	-0.069122	0.012817	0.026703	-0.59891	0.01236	0.14481	0.56992	0.50568	-0.12054	-0.121	0.005035	0.71762	-0.036011	0.13397	-0.27374	-0.003662	0.003052
30.625	-0.005035	0.76263	-0.070801	0.053711	0.030518	0.005646	-0.002441	0.025024	-0.011902	0.033112	0.034943	0.000916	0.009003	0.10529	0.26581	-0.082092	-0.023499	-0.090637	-0.63126	-0.010986	-0.20264	0.8786	0.4628	-0.047607	-0.12817	-0.010376	-0.021667	-0.080414	0.046539	-0.14221	-0.001831	-0.000305
30.626	0.000153	0.76492	-0.11475	0.045471	0.028076	-0.005798	-0.040741	0.033112	0.005493	0.044098	-0.16022	-0.001373	-0.050049	0.036163	0.13397	-0.081787	-0.044556	-0.11856	-1.0063	-0.021973	-0.055084	0.85892	0.48263	-0.049896	-0.29526	0.001984	-0.77377	0.034943	0.11841	0.079956	-0.015259	0.002594
30.627	-0.003204	0.71823	-0.092926	0.043488	0.034943	-0.02655	0.041046	0.023651	0.009308	0.02121	-0.16846	-0.000153	-0.038757	-0.021515	0.006866	-0.08194	-0.045471	-0.1326	-1.4613	-0.005035	0.20859	0.40543	0.040588	0.096588	-0.23254	0.009613	0.041351	0.063934	0.11978	0.057526	-0.001678	-0.001373
30.628	-0.000305	0.69382	-0.079193	0.012665	0.032196	-0.016785	0.27832	0.02182	0.012817	0.014801	-0.071259	0.007172	0.013885	0.018616	-0.23239	-0.079803	-0.003967	0.016632	-1.133	-0.066986	0.60654	0.015106	-0.50446	0.28763	0.085297	0.004578	-0.091705	0.01358	-0.018005	0.11597	-0.007629	-0.008392
30.629	-0.008087	0.6897	-0.082703	-0.03067	0.033875	0.004578	0.4718	0.022888	0.00824	0.012207	-0.25772	0.004578	0.063171	0.006561	-0.31982	-0.075836	-0.003204	0.13016	0.20172	-0.10071	0.30136	0.07431	-0.57281	0.20325	0.20416	-0.00473	-0.4184	0.000153	-0.14297	0.21118	-0.000916	-0.007935
30.63	0.00061	0.62882	-0.082245	-0.084534	0.039368	-0.030518	0.46661	0.015717	0.037384	0.044556	-0.079956	-0.001221	0.02182	0.016937	-0.11765	-0.090485	0.006104	0.016479	0.52765	-0.042725	0.062408	0.063171	-0.29694	0.15289	0.25787	-0.029602	0.74677	-0.011139	-0.21744	0.043335	0.003815	-0.015869
30.631	-0.000916	0.62882	-0.058899	-0.050659	0.037689	-0.033722	0.33936	0.01358	0.064697	0.0383	0.050201	-0.012054	-0.035706	0.033722	-0.030365	-0.076294	0.012054	-0.27512	0.20721	0.022888	0.074158	-0.32211	-0.045776	0.21957	0.16312	-0.01358	1.7267	-0.019226	-0.049286	-0.46417	0.001526	-0.011902
